<svg xmlns="http://www.w3.org/2000/svg" xmlns:xlink="http://www.w3.org/1999/xlink" width="40" zoomAndPan="magnify" viewBox="0 0 30 30.000001" height="40" preserveAspectRatio="xMidYMid meet" version="1.0"><defs><g/><clipPath id="6012faafe9"><path d="M 0.484375 0 L 29.515625 0 L 29.515625 29.03125 L 0.484375 29.03125 Z M 0.484375 0 " clip-rule="nonzero"/></clipPath><clipPath id="205a7651c8"><path d="M 0.484375 0 L 29.515625 0 L 29.515625 29.03125 L 0.484375 29.03125 Z M 0.484375 0 " clip-rule="nonzero"/></clipPath><clipPath id="f79b9840fa"><path d="M 0.222656 -2.4375 L 33.78125 -2.4375 C 34.167969 -2.4375 34.535156 -2.285156 34.808594 -2.011719 C 35.082031 -1.738281 35.234375 -1.371094 35.234375 -0.984375 L 35.234375 27.582031 C 35.234375 27.964844 35.082031 28.335938 34.808594 28.605469 C 34.535156 28.878906 34.167969 29.03125 33.78125 29.03125 L 0.222656 29.03125 C -0.160156 29.03125 -0.53125 28.878906 -0.800781 28.605469 C -1.074219 28.335938 -1.226562 27.964844 -1.226562 27.582031 L -1.226562 -0.984375 C -1.226562 -1.371094 -1.074219 -1.738281 -0.800781 -2.011719 C -0.53125 -2.285156 -0.160156 -2.4375 0.222656 -2.4375 Z M 0.222656 -2.4375 " clip-rule="nonzero"/></clipPath><clipPath id="181a181480"><path d="M 0.484375 4.601562 L 7 4.601562 L 7 24.199219 L 0.484375 24.199219 Z M 0.484375 4.601562 " clip-rule="nonzero"/></clipPath><clipPath id="3fe11a4554"><path d="M 22 4.679688 L 28.753906 4.679688 L 28.753906 24.277344 L 22 24.277344 Z M 22 4.679688 " clip-rule="nonzero"/></clipPath></defs><g clip-path="url(#6012faafe9)"><path fill="#ffffff" d="M 0.484375 0 L 29.515625 0 L 29.515625 29.03125 L 0.484375 29.03125 Z M 0.484375 0 " fill-opacity="1" fill-rule="nonzero"/><path fill="#ffffff" d="M 0.484375 0 L 29.515625 0 L 29.515625 29.03125 L 0.484375 29.03125 Z M 0.484375 0 " fill-opacity="1" fill-rule="nonzero"/></g><g clip-path="url(#205a7651c8)"><g clip-path="url(#f79b9840fa)"><path fill="#725cbb" d="M -1.226562 -2.4375 L 35.234375 -2.4375 L 35.234375 29.03125 L -1.226562 29.03125 Z M -1.226562 -2.4375 " fill-opacity="1" fill-rule="nonzero"/></g></g><g clip-path="url(#181a181480)"><path fill="#efefef" d="M 5.929688 6.78125 L 6.472656 6.78125 L 6.472656 4.601562 L 5.929688 4.601562 C 4.125 4.601562 2.664062 6.066406 2.664062 7.867188 L 2.664062 11.679688 C 2.664062 12.019531 2.503906 12.34375 2.226562 12.550781 L 0.921875 13.53125 C 0.660156 13.726562 0.5 14.027344 0.488281 14.355469 C 0.472656 14.683594 0.609375 14.996094 0.851562 15.214844 L 2.296875 16.5 C 2.53125 16.707031 2.664062 17.003906 2.664062 17.3125 L 2.664062 20.933594 C 2.664062 22.738281 4.125 24.199219 5.929688 24.199219 L 6.472656 24.199219 L 6.472656 22.023438 L 5.929688 22.023438 C 5.328125 22.023438 4.839844 21.535156 4.839844 20.933594 L 4.839844 17.3125 C 4.839844 16.378906 4.441406 15.492188 3.742188 14.871094 L 3.292969 14.472656 L 3.535156 14.292969 C 4.355469 13.675781 4.839844 12.707031 4.839844 11.679688 L 4.839844 7.867188 C 4.839844 7.265625 5.328125 6.78125 5.929688 6.78125 Z M 5.929688 6.78125 " fill-opacity="1" fill-rule="evenodd"/></g><g fill="#efefef" fill-opacity="1"><g transform="translate(6.364983, 18.806368)"><g><path d="M 5.875 -5.078125 C 5.875 -5.753906 5.816406 -6.304688 5.703125 -6.734375 C 5.585938 -7.160156 5.425781 -7.488281 5.21875 -7.71875 C 5.019531 -7.957031 4.785156 -8.117188 4.515625 -8.203125 C 4.242188 -8.285156 3.953125 -8.328125 3.640625 -8.328125 L 3.140625 -8.328125 L 3.140625 -1.71875 L 3.640625 -1.71875 C 3.972656 -1.71875 4.273438 -1.769531 4.546875 -1.875 C 4.816406 -1.976562 5.050781 -2.15625 5.25 -2.40625 C 5.445312 -2.65625 5.597656 -3 5.703125 -3.4375 C 5.816406 -3.875 5.875 -4.421875 5.875 -5.078125 Z M 8.34375 -5.078125 C 8.34375 -4.054688 8.207031 -3.210938 7.9375 -2.546875 C 7.664062 -1.890625 7.300781 -1.375 6.84375 -1 C 6.382812 -0.632812 5.863281 -0.375 5.28125 -0.21875 C 4.695312 -0.0703125 4.09375 0 3.46875 0 L 0.75 0 L 0.75 -10.0625 L 3.296875 -10.0625 C 3.941406 -10.0625 4.5625 -9.992188 5.15625 -9.859375 C 5.757812 -9.722656 6.300781 -9.476562 6.78125 -9.125 C 7.257812 -8.769531 7.640625 -8.265625 7.921875 -7.609375 C 8.203125 -6.960938 8.34375 -6.117188 8.34375 -5.078125 Z M 8.34375 -5.078125 "/></g></g></g><g fill="#efefef" fill-opacity="1"><g transform="translate(14.493987, 18.806368)"><g><path d="M 8.25 -2.9375 C 8.25 -2.3125 8.082031 -1.757812 7.75 -1.28125 C 7.425781 -0.800781 6.957031 -0.425781 6.34375 -0.15625 C 5.738281 0.113281 5.007812 0.25 4.15625 0.25 C 3.207031 0.25 2.410156 0.109375 1.765625 -0.171875 C 1.128906 -0.453125 0.597656 -0.796875 0.171875 -1.203125 L 1.375 -2.546875 C 1.75 -2.210938 2.160156 -1.957031 2.609375 -1.78125 C 3.054688 -1.613281 3.550781 -1.53125 4.09375 -1.53125 C 4.425781 -1.53125 4.71875 -1.578125 4.96875 -1.671875 C 5.21875 -1.765625 5.410156 -1.898438 5.546875 -2.078125 C 5.691406 -2.265625 5.765625 -2.492188 5.765625 -2.765625 C 5.765625 -3.003906 5.707031 -3.207031 5.59375 -3.375 C 5.488281 -3.550781 5.300781 -3.707031 5.03125 -3.84375 C 4.769531 -3.976562 4.40625 -4.113281 3.9375 -4.25 C 3.15625 -4.488281 2.523438 -4.753906 2.046875 -5.046875 C 1.566406 -5.335938 1.21875 -5.675781 1 -6.0625 C 0.789062 -6.445312 0.6875 -6.890625 0.6875 -7.390625 C 0.6875 -8.003906 0.859375 -8.53125 1.203125 -8.96875 C 1.546875 -9.40625 2.003906 -9.738281 2.578125 -9.96875 C 3.148438 -10.195312 3.785156 -10.3125 4.484375 -10.3125 C 5.253906 -10.3125 5.9375 -10.195312 6.53125 -9.96875 C 7.132812 -9.75 7.648438 -9.429688 8.078125 -9.015625 L 6.953125 -7.71875 C 6.617188 -8.007812 6.253906 -8.222656 5.859375 -8.359375 C 5.472656 -8.492188 5.078125 -8.5625 4.671875 -8.5625 C 4.367188 -8.5625 4.101562 -8.523438 3.875 -8.453125 C 3.644531 -8.378906 3.46875 -8.269531 3.34375 -8.125 C 3.21875 -7.976562 3.15625 -7.796875 3.15625 -7.578125 C 3.15625 -7.359375 3.210938 -7.175781 3.328125 -7.03125 C 3.453125 -6.894531 3.664062 -6.757812 3.96875 -6.625 C 4.269531 -6.5 4.6875 -6.351562 5.21875 -6.1875 C 5.851562 -5.988281 6.394531 -5.753906 6.84375 -5.484375 C 7.300781 -5.222656 7.648438 -4.890625 7.890625 -4.484375 C 8.128906 -4.078125 8.25 -3.5625 8.25 -2.9375 Z M 8.25 -2.9375 "/></g></g></g><g clip-path="url(#3fe11a4554)"><path fill="#efefef" d="M 23.308594 22.101562 L 22.765625 22.101562 L 22.765625 24.277344 L 23.308594 24.277344 C 25.109375 24.277344 26.574219 22.816406 26.574219 21.011719 L 26.574219 17.203125 C 26.574219 16.859375 26.734375 16.535156 27.007812 16.332031 L 28.3125 15.351562 C 28.574219 15.15625 28.734375 14.851562 28.75 14.523438 C 28.761719 14.199219 28.628906 13.882812 28.382812 13.667969 L 26.9375 12.378906 C 26.707031 12.175781 26.574219 11.878906 26.574219 11.566406 L 26.574219 7.949219 C 26.574219 6.144531 25.109375 4.679688 23.308594 4.679688 L 22.765625 4.679688 L 22.765625 6.859375 L 23.308594 6.859375 C 23.910156 6.859375 24.394531 7.347656 24.394531 7.949219 L 24.394531 11.566406 C 24.394531 12.5 24.796875 13.386719 25.492188 14.007812 L 25.941406 14.410156 L 25.703125 14.589844 C 24.878906 15.207031 24.394531 16.171875 24.394531 17.203125 L 24.394531 21.011719 C 24.394531 21.613281 23.910156 22.101562 23.308594 22.101562 Z M 23.308594 22.101562 " fill-opacity="1" fill-rule="evenodd"/></g></svg>