<svg xmlns="http://www.w3.org/2000/svg" xmlns:xlink="http://www.w3.org/1999/xlink" width="100" zoomAndPan="magnify" viewBox="0 0 75 44.999999" height="60" preserveAspectRatio="xMidYMid meet" version="1.0"><defs><g/><clipPath id="d400df9f7d"><path d="M 1.828125 1.199219 L 73.171875 1.199219 L 73.171875 43.621094 L 1.828125 43.621094 Z M 1.828125 1.199219 " clip-rule="nonzero"/></clipPath><clipPath id="127f855463"><path d="M 55.335938 1.199219 C 65.183594 1.199219 73.171875 10.695312 73.171875 22.410156 C 73.171875 34.125 65.183594 43.621094 55.335938 43.621094 L 19.664062 43.621094 C 9.816406 43.621094 1.828125 34.125 1.828125 22.410156 C 1.828125 10.695312 9.816406 1.199219 19.664062 1.199219 Z M 55.335938 1.199219 " clip-rule="nonzero"/></clipPath><clipPath id="601c952e28"><path d="M 14.183594 6.285156 L 24 6.285156 L 24 38.535156 L 14.183594 38.535156 Z M 14.183594 6.285156 " clip-rule="nonzero"/></clipPath><clipPath id="f01725b438"><path d="M 51 6.273438 L 60.808594 6.273438 L 60.808594 38.523438 L 51 38.523438 Z M 51 6.273438 " clip-rule="nonzero"/></clipPath></defs><g clip-path="url(#d400df9f7d)"><g clip-path="url(#127f855463)"><path fill="#ffffff" d="M 1.828125 1.199219 L 73.171875 1.199219 L 73.171875 43.621094 L 1.828125 43.621094 Z M 1.828125 1.199219 " fill-opacity="1" fill-rule="nonzero"/></g></g><g clip-path="url(#601c952e28)"><path fill="#000000" d="M 23.027344 9.871094 L 23.910156 9.871094 L 23.910156 6.285156 L 23.027344 6.285156 C 20.097656 6.285156 17.726562 8.691406 17.726562 11.660156 L 17.726562 17.933594 C 17.726562 18.496094 17.464844 19.027344 17.019531 19.367188 L 14.898438 20.976562 C 14.476562 21.300781 14.214844 21.800781 14.195312 22.335938 C 14.171875 22.875 14.390625 23.394531 14.785156 23.75 L 17.132812 25.867188 C 17.511719 26.207031 17.726562 26.695312 17.726562 27.207031 L 17.726562 33.160156 C 17.726562 36.128906 20.097656 38.535156 23.027344 38.535156 L 23.910156 38.535156 L 23.910156 34.953125 L 23.027344 34.953125 C 22.050781 34.953125 21.257812 34.152344 21.257812 33.160156 L 21.257812 27.207031 C 21.257812 25.667969 20.613281 24.207031 19.480469 23.1875 L 18.75 22.527344 L 19.140625 22.230469 C 20.472656 21.21875 21.257812 19.625 21.257812 17.933594 L 21.257812 11.660156 C 21.257812 10.671875 22.050781 9.871094 23.027344 9.871094 Z M 23.027344 9.871094 " fill-opacity="1" fill-rule="evenodd"/></g><g fill="#000000" fill-opacity="1"><g transform="translate(23.839575, 30.220063)"><g><path d="M 10.9375 -8.265625 C 10.9375 -9.691406 10.785156 -10.832031 10.484375 -11.6875 C 10.179688 -12.539062 9.785156 -13.179688 9.296875 -13.609375 C 8.804688 -14.035156 8.269531 -14.320312 7.6875 -14.46875 C 7.101562 -14.613281 6.53125 -14.6875 5.96875 -14.6875 L 4.046875 -14.6875 L 4.046875 -1.65625 L 6 -1.65625 C 6.582031 -1.65625 7.164062 -1.75 7.75 -1.9375 C 8.332031 -2.125 8.863281 -2.457031 9.34375 -2.9375 C 9.832031 -3.414062 10.21875 -4.082031 10.5 -4.9375 C 10.789062 -5.800781 10.9375 -6.910156 10.9375 -8.265625 Z M 13.140625 -8.265625 C 13.140625 -6.554688 12.914062 -5.160156 12.46875 -4.078125 C 12.03125 -2.992188 11.445312 -2.15625 10.71875 -1.5625 C 9.988281 -0.96875 9.1875 -0.554688 8.3125 -0.328125 C 7.445312 -0.109375 6.59375 0 5.75 0 L 1.984375 0 L 1.984375 -16.375 L 5.484375 -16.375 C 6.441406 -16.375 7.375 -16.265625 8.28125 -16.046875 C 9.1875 -15.835938 10.003906 -15.441406 10.734375 -14.859375 C 11.472656 -14.285156 12.054688 -13.46875 12.484375 -12.40625 C 12.921875 -11.351562 13.140625 -9.972656 13.140625 -8.265625 Z M 13.140625 -8.265625 "/></g></g></g><g fill="#000000" fill-opacity="1"><g transform="translate(37.15568, 30.220063)"><g><path d="M 12.765625 -4.53125 C 12.765625 -3.59375 12.53125 -2.757812 12.0625 -2.03125 C 11.59375 -1.3125 10.910156 -0.742188 10.015625 -0.328125 C 9.128906 0.078125 8.050781 0.28125 6.78125 0.28125 C 5.582031 0.28125 4.492188 0.0976562 3.515625 -0.265625 C 2.546875 -0.640625 1.71875 -1.15625 1.03125 -1.8125 L 2.265625 -3.203125 C 2.828125 -2.671875 3.476562 -2.25 4.21875 -1.9375 C 4.957031 -1.625 5.820312 -1.46875 6.8125 -1.46875 C 7.476562 -1.46875 8.097656 -1.570312 8.671875 -1.78125 C 9.253906 -2 9.722656 -2.332031 10.078125 -2.78125 C 10.441406 -3.226562 10.625 -3.800781 10.625 -4.5 C 10.625 -5.03125 10.519531 -5.476562 10.3125 -5.84375 C 10.101562 -6.21875 9.738281 -6.550781 9.21875 -6.84375 C 8.695312 -7.132812 7.96875 -7.414062 7.03125 -7.6875 C 5.945312 -8.007812 5.007812 -8.367188 4.21875 -8.765625 C 3.4375 -9.171875 2.828125 -9.664062 2.390625 -10.25 C 1.960938 -10.832031 1.75 -11.554688 1.75 -12.421875 C 1.75 -13.242188 1.972656 -13.96875 2.421875 -14.59375 C 2.878906 -15.226562 3.503906 -15.726562 4.296875 -16.09375 C 5.097656 -16.457031 6.015625 -16.640625 7.046875 -16.640625 C 8.179688 -16.640625 9.164062 -16.476562 10 -16.15625 C 10.84375 -15.832031 11.601562 -15.367188 12.28125 -14.765625 L 11.0625 -13.421875 C 10.476562 -13.941406 9.847656 -14.316406 9.171875 -14.546875 C 8.503906 -14.785156 7.820312 -14.90625 7.125 -14.90625 C 6.53125 -14.90625 5.984375 -14.816406 5.484375 -14.640625 C 4.992188 -14.460938 4.597656 -14.195312 4.296875 -13.84375 C 4.003906 -13.488281 3.859375 -13.039062 3.859375 -12.5 C 3.859375 -12.03125 3.984375 -11.625 4.234375 -11.28125 C 4.484375 -10.9375 4.910156 -10.625 5.515625 -10.34375 C 6.117188 -10.0625 6.941406 -9.769531 7.984375 -9.46875 C 8.828125 -9.21875 9.609375 -8.90625 10.328125 -8.53125 C 11.054688 -8.164062 11.644531 -7.664062 12.09375 -7.03125 C 12.539062 -6.40625 12.765625 -5.570312 12.765625 -4.53125 Z M 12.765625 -4.53125 "/></g></g></g><g clip-path="url(#f01725b438)"><path fill="#000000" d="M 51.964844 34.941406 L 51.082031 34.941406 L 51.082031 38.523438 L 51.964844 38.523438 C 54.894531 38.523438 57.265625 36.117188 57.265625 33.148438 L 57.265625 26.878906 C 57.265625 26.316406 57.527344 25.785156 57.972656 25.445312 L 60.09375 23.832031 C 60.519531 23.511719 60.777344 23.011719 60.800781 22.472656 C 60.820312 21.9375 60.605469 21.417969 60.207031 21.0625 L 57.859375 18.945312 C 57.484375 18.605469 57.265625 18.117188 57.265625 17.605469 L 57.265625 11.648438 C 57.265625 8.679688 54.894531 6.273438 51.964844 6.273438 L 51.082031 6.273438 L 51.082031 9.859375 L 51.964844 9.859375 C 52.941406 9.859375 53.734375 10.660156 53.734375 11.648438 L 53.734375 17.605469 C 53.734375 19.140625 54.382812 20.605469 55.511719 21.625 L 56.242188 22.28125 L 55.855469 22.578125 C 54.519531 23.59375 53.734375 25.1875 53.734375 26.878906 L 53.734375 33.148438 C 53.734375 34.140625 52.941406 34.941406 51.964844 34.941406 Z M 51.964844 34.941406 " fill-opacity="1" fill-rule="evenodd"/></g></svg>