<svg xmlns="http://www.w3.org/2000/svg" xmlns:xlink="http://www.w3.org/1999/xlink" width="500" zoomAndPan="magnify" viewBox="0 0 375 74.999997" height="100" preserveAspectRatio="xMidYMid meet" version="1.0"><defs><g/><clipPath id="00e2dd2d88"><path d="M 4.878906 4.597656 L 105.335938 4.597656 L 105.335938 70.402344 L 4.878906 70.402344 Z M 4.878906 4.597656 " clip-rule="nonzero"/></clipPath><clipPath id="59040097f1"><path d="M 8.628906 4.597656 L 101.585938 4.597656 C 102.578125 4.597656 103.535156 4.992188 104.238281 5.695312 C 104.941406 6.402344 105.335938 7.355469 105.335938 8.347656 L 105.335938 66.652344 C 105.335938 67.644531 104.941406 68.597656 104.238281 69.304688 C 103.535156 70.007812 102.578125 70.402344 101.585938 70.402344 L 8.628906 70.402344 C 7.632812 70.402344 6.679688 70.007812 5.976562 69.304688 C 5.273438 68.597656 4.878906 67.644531 4.878906 66.652344 L 4.878906 8.347656 C 4.878906 7.355469 5.273438 6.402344 5.976562 5.695312 C 6.679688 4.992188 7.632812 4.597656 8.628906 4.597656 Z M 8.628906 4.597656 " clip-rule="nonzero"/></clipPath><clipPath id="c20bc42db8"><path d="M 9.386719 15.878906 L 23 15.878906 L 23 59.378906 L 9.386719 59.378906 Z M 9.386719 15.878906 " clip-rule="nonzero"/></clipPath><clipPath id="5263de5023"><path d="M 87 15.726562 L 100.820312 15.726562 L 100.820312 59.226562 L 87 59.226562 Z M 87 15.726562 " clip-rule="nonzero"/></clipPath></defs><g clip-path="url(#00e2dd2d88)"><g clip-path="url(#59040097f1)"><path fill="#ffffff" d="M 4.878906 4.597656 L 105.335938 4.597656 L 105.335938 70.402344 L 4.878906 70.402344 Z M 4.878906 4.597656 " fill-opacity="1" fill-rule="nonzero"/></g></g><g clip-path="url(#c20bc42db8)"><path fill="#000000" d="M 21.445312 20.714844 L 22.648438 20.714844 L 22.648438 15.878906 L 21.445312 15.878906 C 17.449219 15.878906 14.214844 19.125 14.214844 23.128906 L 14.214844 31.589844 C 14.214844 32.347656 13.855469 33.066406 13.25 33.519531 L 10.359375 35.695312 C 9.78125 36.132812 9.425781 36.804688 9.394531 37.53125 C 9.367188 38.253906 9.664062 38.953125 10.203125 39.4375 L 13.40625 42.289062 C 13.917969 42.746094 14.214844 43.40625 14.214844 44.09375 L 14.214844 52.128906 C 14.214844 56.132812 17.449219 59.378906 21.445312 59.378906 L 22.648438 59.378906 L 22.648438 54.546875 L 21.445312 54.546875 C 20.113281 54.546875 19.035156 53.464844 19.035156 52.128906 L 19.035156 44.09375 C 19.035156 42.023438 18.152344 40.050781 16.605469 38.675781 L 15.609375 37.789062 L 16.140625 37.386719 C 17.960938 36.019531 19.035156 33.871094 19.035156 31.589844 L 19.035156 23.128906 C 19.035156 21.796875 20.113281 20.714844 21.445312 20.714844 Z M 21.445312 20.714844 " fill-opacity="1" fill-rule="evenodd"/></g><g fill="#ffffff" fill-opacity="1"><g transform="translate(112.886211, 46.842812)"><g><path d="M 13.359375 -11.078125 C 13.359375 -12.679688 13.207031 -13.976562 12.90625 -14.96875 C 12.613281 -15.96875 12.21875 -16.734375 11.71875 -17.265625 C 11.21875 -17.796875 10.640625 -18.15625 9.984375 -18.34375 C 9.335938 -18.53125 8.660156 -18.625 7.953125 -18.625 L 6.390625 -18.625 L 6.390625 -3.28125 L 7.96875 -3.28125 C 8.707031 -3.28125 9.398438 -3.394531 10.046875 -3.625 C 10.703125 -3.863281 11.273438 -4.265625 11.765625 -4.828125 C 12.265625 -5.398438 12.65625 -6.191406 12.9375 -7.203125 C 13.21875 -8.222656 13.359375 -9.515625 13.359375 -11.078125 Z M 17.984375 -11.078125 C 17.984375 -8.828125 17.691406 -6.976562 17.109375 -5.53125 C 16.523438 -4.082031 15.734375 -2.957031 14.734375 -2.15625 C 13.742188 -1.351562 12.628906 -0.789062 11.390625 -0.46875 C 10.160156 -0.15625 8.894531 0 7.59375 0 L 1.96875 0 L 1.96875 -21.921875 L 7.234375 -21.921875 C 8.585938 -21.921875 9.90625 -21.773438 11.1875 -21.484375 C 12.476562 -21.203125 13.632812 -20.671875 14.65625 -19.890625 C 15.6875 -19.117188 16.5 -18.023438 17.09375 -16.609375 C 17.6875 -15.191406 17.984375 -13.347656 17.984375 -11.078125 Z M 17.984375 -11.078125 "/></g></g></g><g fill="#ffffff" fill-opacity="1"><g transform="translate(131.401634, 46.842812)"><g><path d="M 7.703125 -18.671875 L 7.703125 -12.75 L 15.46875 -12.75 L 15.46875 -9.53125 L 7.703125 -9.53125 L 7.703125 -3.25 L 17.125 -3.25 L 17.125 0 L 3.265625 0 L 3.265625 -21.921875 L 17.03125 -21.921875 L 16.5625 -18.671875 Z M 7.703125 -18.671875 "/></g></g></g><g fill="#ffffff" fill-opacity="1"><g transform="translate(149.917057, 46.842812)"><g><path d="M 13.015625 -5 L 5.890625 -5 L 4.546875 0 L -0.03125 0 L 6.796875 -21.921875 L 12.234375 -21.921875 L 19.078125 0 L 14.34375 0 Z M 6.6875 -8.3125 L 12.203125 -8.3125 L 9.453125 -18.625 Z M 6.6875 -8.3125 "/></g></g></g><g fill="#ffffff" fill-opacity="1"><g transform="translate(168.432478, 46.842812)"><g><path d="M 11.53125 0 L 5.140625 -18.15625 C 5.191406 -17.75 5.253906 -17.222656 5.328125 -16.578125 C 5.398438 -15.941406 5.472656 -15.222656 5.546875 -14.421875 C 5.617188 -13.617188 5.675781 -12.765625 5.71875 -11.859375 C 5.769531 -10.960938 5.796875 -10.046875 5.796875 -9.109375 L 5.796875 0 L 1.96875 0 L 1.96875 -21.921875 L 7.59375 -21.921875 L 13.890625 -3.8125 C 13.804688 -4.363281 13.707031 -5.085938 13.59375 -5.984375 C 13.488281 -6.878906 13.398438 -7.898438 13.328125 -9.046875 C 13.253906 -10.191406 13.21875 -11.421875 13.21875 -12.734375 L 13.21875 -21.921875 L 17.0625 -21.921875 L 17.0625 0 Z M 11.53125 0 "/></g></g></g><g fill="#ffffff" fill-opacity="1"><g transform="translate(186.947902, 46.842812)"><g><path d="M 11.53125 0 L 5.140625 -18.15625 C 5.191406 -17.75 5.253906 -17.222656 5.328125 -16.578125 C 5.398438 -15.941406 5.472656 -15.222656 5.546875 -14.421875 C 5.617188 -13.617188 5.675781 -12.765625 5.71875 -11.859375 C 5.769531 -10.960938 5.796875 -10.046875 5.796875 -9.109375 L 5.796875 0 L 1.96875 0 L 1.96875 -21.921875 L 7.59375 -21.921875 L 13.890625 -3.8125 C 13.804688 -4.363281 13.707031 -5.085938 13.59375 -5.984375 C 13.488281 -6.878906 13.398438 -7.898438 13.328125 -9.046875 C 13.253906 -10.191406 13.21875 -11.421875 13.21875 -12.734375 L 13.21875 -21.921875 L 17.0625 -21.921875 L 17.0625 0 Z M 11.53125 0 "/></g></g></g><g fill="#ffffff" fill-opacity="1"><g transform="translate(205.463326, 46.842812)"><g><path d="M 7.703125 -18.671875 L 7.703125 -12.75 L 15.46875 -12.75 L 15.46875 -9.53125 L 7.703125 -9.53125 L 7.703125 -3.25 L 17.125 -3.25 L 17.125 0 L 3.265625 0 L 3.265625 -21.921875 L 17.03125 -21.921875 L 16.5625 -18.671875 Z M 7.703125 -18.671875 "/></g></g></g><g fill="#ffffff" fill-opacity="1"><g transform="translate(223.978744, 46.842812)"><g/></g></g><g fill="#ffffff" fill-opacity="1"><g transform="translate(242.494162, 46.842812)"><g><path d="M 17.6875 -6.3125 C 17.6875 -4.976562 17.34375 -3.800781 16.65625 -2.78125 C 15.976562 -1.757812 14.992188 -0.957031 13.703125 -0.375 C 12.421875 0.195312 10.867188 0.484375 9.046875 0.484375 C 7.128906 0.484375 5.488281 0.203125 4.125 -0.359375 C 2.757812 -0.929688 1.617188 -1.664062 0.703125 -2.5625 L 3.015625 -5.15625 C 3.804688 -4.445312 4.691406 -3.894531 5.671875 -3.5 C 6.660156 -3.101562 7.765625 -2.90625 8.984375 -2.90625 C 9.753906 -2.90625 10.445312 -3.019531 11.0625 -3.25 C 11.6875 -3.488281 12.175781 -3.835938 12.53125 -4.296875 C 12.894531 -4.765625 13.078125 -5.332031 13.078125 -6 C 13.078125 -6.59375 12.953125 -7.09375 12.703125 -7.5 C 12.453125 -7.914062 12.019531 -8.285156 11.40625 -8.609375 C 10.800781 -8.929688 9.945312 -9.257812 8.84375 -9.59375 C 7.21875 -10.082031 5.878906 -10.628906 4.828125 -11.234375 C 3.785156 -11.835938 3.015625 -12.546875 2.515625 -13.359375 C 2.015625 -14.179688 1.765625 -15.15625 1.765625 -16.28125 C 1.765625 -17.550781 2.113281 -18.640625 2.8125 -19.546875 C 3.519531 -20.460938 4.46875 -21.164062 5.65625 -21.65625 C 6.851562 -22.15625 8.191406 -22.40625 9.671875 -22.40625 C 11.304688 -22.40625 12.742188 -22.171875 13.984375 -21.703125 C 15.222656 -21.234375 16.316406 -20.5625 17.265625 -19.6875 L 15.0625 -17.1875 C 14.3125 -17.832031 13.5 -18.304688 12.625 -18.609375 C 11.757812 -18.910156 10.875 -19.0625 9.96875 -19.0625 C 9.269531 -19.0625 8.648438 -18.96875 8.109375 -18.78125 C 7.566406 -18.601562 7.140625 -18.332031 6.828125 -17.96875 C 6.515625 -17.601562 6.359375 -17.140625 6.359375 -16.578125 C 6.359375 -16.054688 6.5 -15.613281 6.78125 -15.25 C 7.070312 -14.894531 7.566406 -14.566406 8.265625 -14.265625 C 8.972656 -13.960938 9.9375 -13.617188 11.15625 -13.234375 C 12.46875 -12.835938 13.613281 -12.359375 14.59375 -11.796875 C 15.582031 -11.242188 16.34375 -10.53125 16.875 -9.65625 C 17.414062 -8.789062 17.6875 -7.675781 17.6875 -6.3125 Z M 17.6875 -6.3125 "/></g></g></g><g fill="#ffffff" fill-opacity="1"><g transform="translate(261.009579, 46.842812)"><g><path d="M 17.109375 -21.921875 L 18.34375 0 L 14.390625 0 L 14 -10.015625 C 13.96875 -10.859375 13.945312 -11.640625 13.9375 -12.359375 C 13.9375 -13.078125 13.941406 -13.757812 13.953125 -14.40625 C 13.972656 -15.050781 14 -15.675781 14.03125 -16.28125 C 14.0625 -16.894531 14.09375 -17.5 14.125 -18.09375 L 11.28125 -3.78125 L 7.703125 -3.78125 L 4.640625 -18.09375 C 4.691406 -17.519531 4.734375 -16.925781 4.765625 -16.3125 C 4.804688 -15.695312 4.832031 -15.054688 4.84375 -14.390625 C 4.863281 -13.734375 4.875 -13.035156 4.875 -12.296875 C 4.875 -11.554688 4.863281 -10.78125 4.84375 -9.96875 L 4.546875 0 L 0.6875 0 L 1.921875 -21.921875 L 6.78125 -21.921875 L 9.578125 -7.5 L 12.21875 -21.921875 Z M 17.109375 -21.921875 "/></g></g></g><g fill="#ffffff" fill-opacity="1"><g transform="translate(279.524997, 46.842812)"><g><path d="M 7.703125 -18.671875 L 7.703125 -12.75 L 15.46875 -12.75 L 15.46875 -9.53125 L 7.703125 -9.53125 L 7.703125 -3.25 L 17.125 -3.25 L 17.125 0 L 3.265625 0 L 3.265625 -21.921875 L 17.03125 -21.921875 L 16.5625 -18.671875 Z M 7.703125 -18.671875 "/></g></g></g><g fill="#ffffff" fill-opacity="1"><g transform="translate(298.040414, 46.842812)"><g><path d="M 13.015625 -5 L 5.890625 -5 L 4.546875 0 L -0.03125 0 L 6.796875 -21.921875 L 12.234375 -21.921875 L 19.078125 0 L 14.34375 0 Z M 6.6875 -8.3125 L 12.203125 -8.3125 L 9.453125 -18.625 Z M 6.6875 -8.3125 "/></g></g></g><g fill="#ffffff" fill-opacity="1"><g transform="translate(316.555832, 46.842812)"><g><path d="M 11.703125 -18.453125 L 11.703125 0 L 7.265625 0 L 7.265625 -18.453125 L 0.890625 -18.453125 L 0.890625 -21.921875 L 18.265625 -21.921875 L 17.796875 -18.453125 Z M 11.703125 -18.453125 "/></g></g></g><g fill="#ffffff" fill-opacity="1"><g transform="translate(335.07125, 46.842812)"><g><path d="M 18.078125 -10.96875 C 18.078125 -8.675781 17.753906 -6.671875 17.109375 -4.953125 C 16.460938 -3.234375 15.503906 -1.894531 14.234375 -0.9375 C 12.960938 0.0078125 11.390625 0.484375 9.515625 0.484375 C 7.640625 0.484375 6.066406 0.0195312 4.796875 -0.90625 C 3.523438 -1.84375 2.566406 -3.164062 1.921875 -4.875 C 1.273438 -6.59375 0.953125 -8.617188 0.953125 -10.953125 C 0.953125 -13.242188 1.273438 -15.25 1.921875 -16.96875 C 2.566406 -18.6875 3.523438 -20.019531 4.796875 -20.96875 C 6.066406 -21.925781 7.640625 -22.40625 9.515625 -22.40625 C 11.390625 -22.40625 12.960938 -21.941406 14.234375 -21.015625 C 15.503906 -20.085938 16.460938 -18.765625 17.109375 -17.046875 C 17.753906 -15.328125 18.078125 -13.300781 18.078125 -10.96875 Z M 13.5 -10.96875 C 13.5 -13.738281 13.191406 -15.78125 12.578125 -17.09375 C 11.960938 -18.414062 10.941406 -19.078125 9.515625 -19.078125 C 8.085938 -19.078125 7.0625 -18.410156 6.4375 -17.078125 C 5.820312 -15.753906 5.515625 -13.710938 5.515625 -10.953125 C 5.515625 -8.179688 5.832031 -6.140625 6.46875 -4.828125 C 7.101562 -3.515625 8.117188 -2.859375 9.515625 -2.859375 C 10.960938 -2.859375 11.988281 -3.519531 12.59375 -4.84375 C 13.195312 -6.175781 13.5 -8.21875 13.5 -10.96875 Z M 13.5 -10.96875 "/></g></g></g><g fill="#ffffff" fill-opacity="1"><g transform="translate(353.586667, 46.842812)"><g><path d="M 11.53125 0 L 5.140625 -18.15625 C 5.191406 -17.75 5.253906 -17.222656 5.328125 -16.578125 C 5.398438 -15.941406 5.472656 -15.222656 5.546875 -14.421875 C 5.617188 -13.617188 5.675781 -12.765625 5.71875 -11.859375 C 5.769531 -10.960938 5.796875 -10.046875 5.796875 -9.109375 L 5.796875 0 L 1.96875 0 L 1.96875 -21.921875 L 7.59375 -21.921875 L 13.890625 -3.8125 C 13.804688 -4.363281 13.707031 -5.085938 13.59375 -5.984375 C 13.488281 -6.878906 13.398438 -7.898438 13.328125 -9.046875 C 13.253906 -10.191406 13.21875 -11.421875 13.21875 -12.734375 L 13.21875 -21.921875 L 17.0625 -21.921875 L 17.0625 0 Z M 11.53125 0 "/></g></g></g><g fill="#000000" fill-opacity="1"><g transform="translate(28.523022, 52.359984)"><g><path d="M 21.078125 -15.921875 C 21.078125 -18.671875 20.785156 -20.867188 20.203125 -22.515625 C 19.628906 -24.171875 18.867188 -25.410156 17.921875 -26.234375 C 16.972656 -27.054688 15.9375 -27.601562 14.8125 -27.875 C 13.6875 -28.15625 12.582031 -28.296875 11.5 -28.296875 L 7.796875 -28.296875 L 7.796875 -3.1875 L 11.546875 -3.1875 C 12.679688 -3.1875 13.804688 -3.363281 14.921875 -3.71875 C 16.046875 -4.082031 17.070312 -4.722656 18 -5.640625 C 18.9375 -6.566406 19.679688 -7.859375 20.234375 -9.515625 C 20.796875 -11.171875 21.078125 -13.304688 21.078125 -15.921875 Z M 25.3125 -15.921875 C 25.3125 -12.617188 24.882812 -9.925781 24.03125 -7.84375 C 23.175781 -5.757812 22.046875 -4.148438 20.640625 -3.015625 C 19.234375 -1.878906 17.691406 -1.09375 16.015625 -0.65625 C 14.347656 -0.21875 12.695312 0 11.0625 0 L 3.828125 0 L 3.828125 -31.546875 L 10.5625 -31.546875 C 12.414062 -31.546875 14.210938 -31.335938 15.953125 -30.921875 C 17.703125 -30.515625 19.285156 -29.757812 20.703125 -28.65625 C 22.117188 -27.550781 23.238281 -25.972656 24.0625 -23.921875 C 24.894531 -21.878906 25.3125 -19.210938 25.3125 -15.921875 Z M 25.3125 -15.921875 "/></g></g></g><g fill="#000000" fill-opacity="1"><g transform="translate(54.178804, 52.359984)"><g><path d="M 24.59375 -8.734375 C 24.59375 -6.929688 24.140625 -5.328125 23.234375 -3.921875 C 22.335938 -2.523438 21.03125 -1.429688 19.3125 -0.640625 C 17.601562 0.140625 15.519531 0.53125 13.0625 0.53125 C 10.75 0.53125 8.65625 0.179688 6.78125 -0.515625 C 4.914062 -1.222656 3.320312 -2.21875 2 -3.5 L 4.359375 -6.15625 C 5.453125 -5.132812 6.707031 -4.320312 8.125 -3.71875 C 9.550781 -3.113281 11.21875 -2.8125 13.125 -2.8125 C 14.40625 -2.8125 15.601562 -3.019531 16.71875 -3.4375 C 17.84375 -3.863281 18.75 -4.507812 19.4375 -5.375 C 20.125 -6.238281 20.46875 -7.332031 20.46875 -8.65625 C 20.46875 -9.6875 20.265625 -10.554688 19.859375 -11.265625 C 19.460938 -11.984375 18.757812 -12.625 17.75 -13.1875 C 16.75 -13.75 15.347656 -14.296875 13.546875 -14.828125 C 11.460938 -15.429688 9.660156 -16.117188 8.140625 -16.890625 C 6.617188 -17.671875 5.441406 -18.625 4.609375 -19.75 C 3.785156 -20.882812 3.375 -22.28125 3.375 -23.9375 C 3.375 -25.519531 3.804688 -26.921875 4.671875 -28.140625 C 5.546875 -29.359375 6.75 -30.316406 8.28125 -31.015625 C 9.820312 -31.710938 11.59375 -32.0625 13.59375 -32.0625 C 15.769531 -32.0625 17.664062 -31.75 19.28125 -31.125 C 20.894531 -30.507812 22.359375 -29.617188 23.671875 -28.453125 L 21.328125 -25.875 C 20.203125 -26.875 18.988281 -27.597656 17.6875 -28.046875 C 16.382812 -28.503906 15.0625 -28.734375 13.71875 -28.734375 C 12.570312 -28.734375 11.519531 -28.5625 10.5625 -28.21875 C 9.613281 -27.875 8.851562 -27.359375 8.28125 -26.671875 C 7.707031 -25.992188 7.421875 -25.128906 7.421875 -24.078125 C 7.421875 -23.179688 7.664062 -22.40625 8.15625 -21.75 C 8.644531 -21.09375 9.46875 -20.492188 10.625 -19.953125 C 11.789062 -19.410156 13.375 -18.835938 15.375 -18.234375 C 17.007812 -17.765625 18.523438 -17.171875 19.921875 -16.453125 C 21.316406 -15.742188 22.441406 -14.78125 23.296875 -13.5625 C 24.160156 -12.351562 24.59375 -10.742188 24.59375 -8.734375 Z M 24.59375 -8.734375 "/></g></g></g><g clip-path="url(#5263de5023)"><path fill="#000000" d="M 88.765625 54.394531 L 87.5625 54.394531 L 87.5625 59.226562 L 88.765625 59.226562 C 92.757812 59.226562 95.996094 55.980469 95.996094 51.976562 L 95.996094 43.519531 C 95.996094 42.757812 96.351562 42.042969 96.960938 41.585938 L 99.851562 39.410156 C 100.429688 38.976562 100.785156 38.300781 100.8125 37.578125 C 100.84375 36.851562 100.546875 36.152344 100.007812 35.671875 L 96.804688 32.816406 C 96.289062 32.359375 95.996094 31.703125 95.996094 31.011719 L 95.996094 22.976562 C 95.996094 18.972656 92.757812 15.726562 88.765625 15.726562 L 87.5625 15.726562 L 87.5625 20.5625 L 88.765625 20.5625 C 90.097656 20.5625 91.175781 21.640625 91.175781 22.976562 L 91.175781 31.011719 C 91.175781 33.082031 92.058594 35.054688 93.601562 36.429688 L 94.601562 37.320312 L 94.066406 37.71875 C 92.246094 39.089844 91.175781 41.238281 91.175781 43.519531 L 91.175781 51.976562 C 91.175781 53.3125 90.097656 54.394531 88.765625 54.394531 Z M 88.765625 54.394531 " fill-opacity="1" fill-rule="evenodd"/></g></svg>